<svg xmlns="http://www.w3.org/2000/svg" width="1024" height="1024" viewBox="0 0 1024 1024">
  <!-- Controller silhouette adapted from Bootstrap Icons "controller" (MIT, (c) The Bootstrap Authors) -->
  <rect x="20" y="20" width="984" height="984" rx="218" fill="#1e1e2e"/>
  <g transform="translate(17 45) scale(62)">
    <path fill="#cba6f7" d="M3.051 3.26a.5.5 0 0 1 .354-.613l1.932-.518a.5.5 0 0 1 .62.39c.655-.079 1.35-.117 2.043-.117.72 0 1.443.041 2.12.126a.5.5 0 0 1 .622-.399l1.932.518a.5.5 0 0 1 .306.729q.211.136.373.297c.408.408.78 1.05 1.095 1.772.32.733.599 1.591.805 2.466s.34 1.78.364 2.606c.024.816-.059 1.602-.328 2.21a1.42 1.42 0 0 1-1.445.83c-.636-.067-1.115-.394-1.513-.773-.245-.232-.496-.526-.739-.808-.126-.148-.25-.292-.368-.423-.728-.804-1.597-1.527-3.224-1.527s-2.496.723-3.224 1.527c-.119.131-.242.275-.368.423-.243.282-.494.575-.739.808-.398.38-.877.706-1.513.773a1.42 1.42 0 0 1-1.445-.83c-.27-.608-.352-1.395-.329-2.21.024-.826.16-1.73.365-2.606.206-.875.486-1.733.805-2.466.315-.722.687-1.364 1.094-1.772a2.3 2.3 0 0 1 .433-.335l-.028-.079z"/>
    <path fill="#1e1e2e" d="M11.5 6.027a.5.5 0 1 1-1 0 .5.5 0 0 1 1 0m-1.5 1.5a.5.5 0 1 0 0-1 .5.5 0 0 0 0 1m2.5-.5a.5.5 0 1 1-1 0 .5.5 0 0 1 1 0m-1.5 1.5a.5.5 0 1 0 0-1 .5.5 0 0 0 0 1m-6.5-3h1v1h1v1h-1v1h-1v-1h-1v-1h1z"/>
  </g>
  <circle cx="820" cy="822" r="116" fill="#a6e3a1" stroke="#1e1e2e" stroke-width="16"/>
  <polyline points="760,824 802,866 882,772" fill="none" stroke="#1e1e2e" stroke-width="32" stroke-linecap="round" stroke-linejoin="round"/>
</svg>
