<svg xmlns="http://www.w3.org/2000/svg" width="1024" height="1024" viewBox="0 0 1024 1024">
  <!-- PREVIEW ONLY - adapted from "gamer controller" by Visual Glow / Noun Project (CC BY 3.0, attribution required if shipped) -->
  <rect x="20" y="20" width="984" height="984" rx="218" fill="#1e1e2e"/>
  <g transform="translate(37 42) scale(9.5)" fill="#cba6f7">
    <path d="M63.71,46.75c-2.94,0-5.34,2.4-5.34,5.34s2.39,5.34,5.34,5.34s5.34-2.4,5.34-5.34S66.65,46.75,63.71,46.75z"/><path d="M76.85,36.76c1.75,0,3.17-1.42,3.17-3.17s-1.42-3.17-3.17-3.17s-3.17,1.42-3.17,3.17S75.1,36.76,76.85,36.76z M76.85,32.42   c0.65,0,1.17,0.52,1.17,1.17s-0.52,1.17-1.17,1.17c-0.64,0-1.17-0.52-1.17-1.17S76.21,32.42,76.85,32.42z"/><path d="M76.85,41.14c-1.75,0-3.17,1.42-3.17,3.17s1.42,3.17,3.17,3.17s3.17-1.42,3.17-3.17S78.6,41.14,76.85,41.14z M76.85,45.47   c-0.64,0-1.17-0.52-1.17-1.17c0-0.65,0.52-1.17,1.17-1.17c0.65,0,1.17,0.52,1.17,1.17C78.02,44.95,77.5,45.47,76.85,45.47z"/><path d="M74.66,38.95c0-1.75-1.42-3.17-3.17-3.17s-3.17,1.42-3.17,3.17s1.42,3.17,3.17,3.17S74.66,40.69,74.66,38.95z M71.49,40.12   c-0.65,0-1.17-0.52-1.17-1.17c0-0.64,0.52-1.17,1.17-1.17c0.64,0,1.17,0.52,1.17,1.17C72.66,39.59,72.14,40.12,71.49,40.12z"/><path d="M82.47,35.78c-1.75,0-3.17,1.42-3.17,3.17s1.42,3.17,3.17,3.17s3.17-1.42,3.17-3.17S84.21,35.78,82.47,35.78z M82.47,40.12   c-0.64,0-1.17-0.52-1.17-1.17c0-0.64,0.52-1.17,1.17-1.17c0.65,0,1.17,0.52,1.17,1.17C83.64,39.59,83.11,40.12,82.47,40.12z"/><path d="M36.29,46.75c-2.94,0-5.34,2.4-5.34,5.34s2.39,5.34,5.34,5.34s5.34-2.4,5.34-5.34S39.23,46.75,36.29,46.75z"/><path d="M16.81,42.88h2.26v2.38c0,1.22,0.99,2.21,2.21,2.21h2.43c1.22,0,2.21-0.99,2.21-2.21v-2.38h2.26   c1.22,0,2.21-0.99,2.21-2.21v-2.43c0-1.22-0.99-2.21-2.21-2.21h-2.26v-2.38c0-1.22-0.99-2.21-2.21-2.21h-2.43   c-1.22,0-2.21,0.99-2.21,2.21v2.38h-2.26c-1.22,0-2.21,0.99-2.21,2.21v2.43C14.61,41.89,15.6,42.88,16.81,42.88z M23.71,45.47   h-2.43c-0.12,0-0.21-0.09-0.21-0.21v-2.85l1.42-1.5l1.42,1.5v2.85C23.92,45.38,23.83,45.47,23.71,45.47z M28.39,38.24v2.43   c0,0.12-0.09,0.21-0.21,0.21h-2.95l-1.35-1.42l1.35-1.42h2.95C28.29,38.03,28.39,38.13,28.39,38.24z M21.28,33.44h2.43   c0.12,0,0.21,0.09,0.21,0.21v2.85L22.5,38l-1.42-1.5v-2.85C21.07,33.53,21.17,33.44,21.28,33.44z M16.61,38.24   c0-0.12,0.09-0.21,0.21-0.21h2.95l1.35,1.42l-1.35,1.42h-2.95c-0.12,0-0.21-0.09-0.21-0.21V38.24z"/><path d="M87.33,33.29c-1.25-2.68-3.29-4.53-5.37-5.81l-0.03-4.17c-0.01-1.12-0.82-2.06-1.93-2.24l-8.86-1.45   c-1.17-0.19-2.32,0.57-2.6,1.73l-0.59,2.47c-7.73-0.69-16.76-0.56-17.25-0.55h-1.37c-0.5-0.01-9.55-0.14-17.25,0.55l-0.59-2.47   c-0.28-1.16-1.42-1.92-2.6-1.73l-8.86,1.45c-1.1,0.18-1.91,1.12-1.92,2.24l-0.03,4.16c-2.08,1.27-4.13,3.12-5.37,5.79   c-0.34,0.66-8.23,16.47-6.34,34.77c0.1,0.93,0.29,1.86,0.58,2.76c0.83,2.59,2.85,7.21,7.02,9c1.71,0.75,5.36,1.35,6.91-1.74   l0.08-0.21c0.03-0.12,2.9-11.76,10.64-17.31c1.4,0.78,3,1.23,4.72,1.23c0.04,0,0.08-0.01,0.11-0.01v0.01h27.31   c1.71,0,3.32-0.45,4.72-1.23c7.73,5.54,10.62,17.19,10.64,17.31l0.08,0.21c0.9,1.8,2.51,2.35,4.03,2.35c1.1,0,2.16-0.29,2.87-0.6   c4.17-1.79,6.19-6.41,7.02-9c0.29-0.9,0.48-1.83,0.58-2.76C95.55,49.73,87.65,33.93,87.33,33.29z M49.31,25.27h1.41   c0.12,0,9.08-0.13,16.76,0.53l-2.1,9.51l-0.02-0.01c-0.27,1.2-1.32,2.04-2.55,2.04l-25.55-0.03c-1.21,0-2.25-0.82-2.54-1.99   l-0.04,0.01l-2.11-9.54C40.19,25.14,49.17,25.27,49.31,25.27z M48.91,43.69c0.42,0,0.77,0.34,0.77,0.77c0,0.42-0.34,0.77-0.77,0.77   c-0.42,0-0.77-0.34-0.77-0.77C48.14,44.03,48.49,43.69,48.91,43.69z M48.14,42.03c0-0.42,0.34-0.77,0.77-0.77   c0.42,0,0.77,0.34,0.77,0.77c0,0.42-0.34,0.77-0.77,0.77C48.49,42.79,48.14,42.45,48.14,42.03z M48.63,54.66h2.59   c0.55,0,1,0.45,1,1s-0.45,1-1,1h-2.59c-0.55,0-1-0.45-1-1S48.08,54.66,48.63,54.66z M51.46,43.69c0.42,0,0.77,0.34,0.77,0.77   c0,0.42-0.34,0.77-0.77,0.77s-0.77-0.34-0.77-0.77C50.69,44.03,51.04,43.69,51.46,43.69z M50.69,42.03c0-0.42,0.34-0.77,0.77-0.77   s0.77,0.34,0.77,0.77c0,0.42-0.34,0.77-0.77,0.77S50.69,42.45,50.69,42.03z M45.59,44.45c0-0.42,0.34-0.77,0.77-0.77   s0.77,0.34,0.77,0.77c0,0.42-0.34,0.77-0.77,0.77S45.59,44.88,45.59,44.45z M46.36,42.79c-0.42,0-0.77-0.34-0.77-0.77   c0-0.42,0.34-0.77,0.77-0.77s0.77,0.34,0.77,0.77C47.12,42.45,46.78,42.79,46.36,42.79z M54.78,42.03c0,0.42-0.34,0.77-0.77,0.77   c-0.42,0-0.77-0.34-0.77-0.77c0-0.42,0.34-0.77,0.77-0.77C54.44,41.26,54.78,41.61,54.78,42.03z M54.01,43.69   c0.42,0,0.77,0.34,0.77,0.77c0,0.42-0.34,0.77-0.77,0.77c-0.42,0-0.77-0.34-0.77-0.77C53.25,44.03,53.59,43.69,54.01,43.69z    M8.83,70.19c-0.25-0.77-0.42-1.57-0.5-2.36c-1.83-17.7,6.06-33.51,6.15-33.69c2.83-6.07,10.9-7.33,11.06-7.36   c1.41-0.33,3.12-0.59,4.98-0.79l2.49,11.27c0.62,2.68-1.4,4.57-1.48,4.65c0,0-12.12,15.79-17.13,35.9   C11.19,76.22,9.53,72.39,8.83,70.19z M28.61,52.09c0-4.23,3.44-7.68,7.68-7.68s7.68,3.44,7.68,7.68s-3.44,7.68-7.68,7.68   S28.61,56.32,28.61,52.09z M56.03,52.09c0-4.23,3.44-7.68,7.68-7.68s7.68,3.44,7.68,7.68s-3.44,7.68-7.68,7.68   S56.03,56.32,56.03,52.09z M91.67,67.83c-0.08,0.79-0.25,1.59-0.5,2.36c-0.7,2.2-2.35,6.03-5.58,7.61   C80.58,57.7,68.46,41.9,68.46,41.9c-0.02-0.02-2.11-1.93-1.48-4.66l2.49-11.26c1.89,0.21,3.63,0.47,5.07,0.8   c0.08,0.01,8.14,1.26,10.99,7.37C85.61,34.32,93.5,50.13,91.67,67.83z"/><path d="M71.03,32.4c0.07,0.02,0.14,0.02,0.21,0.02c0.46,0,0.88-0.32,0.98-0.79l0.56-2.59c0.12-0.54-0.23-1.07-0.77-1.19   c-0.54-0.12-1.07,0.23-1.19,0.77l-0.56,2.59C70.14,31.75,70.49,32.28,71.03,32.4z"/><path d="M27.82,31.63c0.1,0.47,0.52,0.79,0.98,0.79c0.07,0,0.14-0.01,0.21-0.02c0.54-0.12,0.88-0.65,0.77-1.19l-0.56-2.59   c-0.12-0.54-0.65-0.88-1.19-0.77c-0.54,0.12-0.88,0.65-0.77,1.19L27.82,31.63z"/>
  </g>
  <circle cx="820" cy="822" r="116" fill="#a6e3a1" stroke="#1e1e2e" stroke-width="16"/>
  <polyline points="760,824 802,866 882,772" fill="none" stroke="#1e1e2e" stroke-width="32" stroke-linecap="round" stroke-linejoin="round"/>
</svg>
